# xmcd CD database file
#
# Track frame offsets:
#	150
#	10563
#	17594
#	24812
#	31501
#	37331
#	44245
#	51985
#	61089
#	67376
#	76087
#	95741
#	110835
#	127339
#	143029
#	157207
#	174342
#	191802
#	209120
#	226607
#	243337
#	249375
#	255396
#	261196
#	263996
#	271418
#	281258
#	286093
#	292529
#	295693
#
# Disc length: 4001 seconds
#
# Revision: 0
# Processed by: cddbd v1.5.2PL0 Copyright (c) Steve Scherf et al.
# Submitted via: CDex 1.51
#
DISCID=b60f9f1e
DTITLE=Patrick Moulou - Easy Django Vol 3
DYEAR=2011
DGENRE=Jazz
TTITLE0=Anatole's Day
TTITLE1=Django Blues
TTITLE2=30's Moody
TTITLE3=Swing Master
TTITLE4=Brown Eyes
TTITLE5=Minor Dedicace
TTITLE6=Me Djangelli
TTITLE7=Arpeggios Night
TTITLE8=Dixieland Serenade
TTITLE9=Last Period
TTITLE10=Anatole's Day Playback
TTITLE11=Django Blues Playback
TTITLE12=30's Moody Playback
TTITLE13=Swing Master Playback
TTITLE14=Brown Eyes Playback
TTITLE15=Minor Dedicace Playback
TTITLE16=Mr Djangelli Playback
TTITLE17=Arpeggios Night Playback
TTITLE18=Dixieland Serenade Playback
TTITLE19=Last Period Playback
TTITLE20=Anatole's Day Licks
TTITLE21=Django Blues Licks
TTITLE22=30's Moody Licks
TTITLE23=Swing Master Licks
TTITLE24=Brown Eyes Licks
TTITLE25=Minor Dedicace Licks
TTITLE26=Mr Djangelli Licks
TTITLE27=Arpeggios Night Licks
TTITLE28=Dixieland Serenade Licks
TTITLE29=Last Period Licks
EXTD=YEAR: 2011
EXTT0=
EXTT1=
EXTT2=
EXTT3=
EXTT4=
EXTT5=
EXTT6=
EXTT7=
EXTT8=
EXTT9=
EXTT10=
EXTT11=
EXTT12=
EXTT13=
EXTT14=
EXTT15=
EXTT16=
EXTT17=
EXTT18=
EXTT19=
EXTT20=
EXTT21=
EXTT22=
EXTT23=
EXTT24=
EXTT25=
EXTT26=
EXTT27=
EXTT28=
EXTT29=
PLAYORDER=
